<svg xmlns="http://www.w3.org/2000/svg" width="46" height="46" viewBox="0 0 46 46">
  <g fill="none" fill-rule="evenodd">
    <path fill="#FFF" d="M23 45c12.15 0 22-9.85 22-22S35.15 1 23 1 1 10.85 1 23s9.85 22 22 22z"/>
    <path fill="#4285F4" d="M32.64 24.204c0-.638-.057-1.252-.163-1.84H23v3.481h5.438a4.64 4.64 0 0 1-2.01 3.047v2.522h3.24c1.897-1.75 2.992-4.327 2.992-7.21z"/>
    <path fill="#34A853" d="M23 33c2.7 0 4.96-.897 6.613-2.44l-3.24-2.522c-.9.604-2.05.96-3.373.96-2.594 0-4.797-1.753-5.587-4.104h-3.3v2.58A9.997 9.997 0 0 0 23 33z"/>
    <path fill="#FBBC05" d="M17.413 24.894A5.996 5.996 0 0 1 17.09 23c0-.66.114-1.294.323-1.894v-2.58h-3.3A9.997 9.997 0 0 0 13 23c0 1.65.396 3.21 1.113 4.474l3.3-2.58z"/>
    <path fill="#EA4335" d="M23 17.96c1.47 0 2.78.507 3.81 1.5l2.85-2.85C27.96 15.36 25.7 14.5 23 14.5c-3.18 0-5.97 1.79-7.29 4.406l3.3 2.58c.79-2.35 2.993-4.104 5.587-4.104z"/>
  </g>
</svg>
